HIERARCHY
ROOT Hips
{
  OFFSET 0.000 67.698 0.000
  CHANNELS 6 Xposition Yposition Zposition Zrotation Xrotation Yrotation
  JOINT LeftUpLeg
  {
    OFFSET 7.501 0.881 3.410
    CHANNELS 6 Xposition Yposition Zposition Zrotation Xrotation Yrotation
    JOINT LeftLeg
    {
      OFFSET 0.000 -32.439 0.000
      CHANNELS 6 Xposition Yposition Zposition Zrotation Xrotation Yrotation
      JOINT LeftFoot
      {
        OFFSET 0.000 -36.140 0.000
        CHANNELS 6 Xposition Yposition Zposition Zrotation Xrotation Yrotation
        End Site
        {
          OFFSET 0.000 0.000 10.112
        }
      }
    }
  }
  JOINT RightUpLeg
  {
    OFFSET -7.501 0.881 3.410
    CHANNELS 6 Xposition Yposition Zposition Zrotation Xrotation Yrotation
    JOINT RightLeg
    {
      OFFSET 0.000 -32.439 0.000
      CHANNELS 6 Xposition Yposition Zposition Zrotation Xrotation Yrotation
      JOINT RightFoot
      {
        OFFSET 0.000 -36.140 0.000
        CHANNELS 6 Xposition Yposition Zposition Zrotation Xrotation Yrotation
        End Site
        {
          OFFSET 0.000 0.000 10.112
        }
      }
    }
  }
  JOINT Spine
  {
    OFFSET 0.000 29.171 0.000
    CHANNELS 6 Xposition Yposition Zposition Zrotation Xrotation Yrotation
    JOINT Spine1
    {
      OFFSET 0.000 21.980 0.000
      CHANNELS 6 Xposition Yposition Zposition Zrotation Xrotation Yrotation
      JOINT LeftShoulder
      {
        OFFSET 1.534 -0.353 0.483
        CHANNELS 6 Xposition Yposition Zposition Zrotation Xrotation Yrotation
        JOINT LeftArm
        {
          OFFSET 16.666 0.000 0.000
          CHANNELS 6 Xposition Yposition Zposition Zrotation Xrotation Yrotation
          JOINT LeftForeArm
          {
            OFFSET 23.531 0.000 0.000
            CHANNELS 6 Xposition Yposition Zposition Zrotation Xrotation Yrotation
            JOINT LeftHand
            {
              OFFSET 21.427 0.000 0.000
              CHANNELS 6 Xposition Yposition Zposition Zrotation Xrotation Yrotation
              JOINT LeftHandThumb1
              {
                OFFSET 4.877 -1.044 3.608
                CHANNELS 6 Xposition Yposition Zposition Zrotation Xrotation Yrotation
                JOINT LeftHandThumb2
                {
                  OFFSET 2.665 0.000 0.000
                  CHANNELS 6 Xposition Yposition Zposition Zrotation Xrotation Yrotation
                  JOINT LeftHandThumb3
                  {
                    OFFSET 2.543 0.000 0.000
                    CHANNELS 6 Xposition Yposition Zposition Zrotation Xrotation Yrotation
                    End Site
                    {
                      OFFSET 2.667 0.000 0.000
                    }
                  }
                }
              }
              JOINT LeftHandIndex1
              {
                OFFSET 9.232 -0.301 2.144
                CHANNELS 6 Xposition Yposition Zposition Zrotation Xrotation Yrotation
                JOINT LeftHandIndex2
                {
                  OFFSET 4.225 -0.000 0.000
                  CHANNELS 6 Xposition Yposition Zposition Zrotation Xrotation Yrotation
                  JOINT LeftHandIndex3
                  {
                    OFFSET 2.654 0.000 -0.000
                    CHANNELS 6 Xposition Yposition Zposition Zrotation Xrotation Yrotation
                    End Site
                    {
                      OFFSET 1.958 0.000 0.000
                    }
                  }
                }
              }
              JOINT LeftHandMiddle1
              {
                OFFSET 8.920 0.000 0.000
                CHANNELS 6 Xposition Yposition Zposition Zrotation Xrotation Yrotation
                JOINT LeftHandMiddle2
                {
                  OFFSET 4.863 0.000 -0.000
                  CHANNELS 6 Xposition Yposition Zposition Zrotation Xrotation Yrotation
                  JOINT LeftHandMiddle3
                  {
                    OFFSET 2.765 -0.000 -0.000
                    CHANNELS 6 Xposition Yposition Zposition Zrotation Xrotation Yrotation
                    End Site
                    {
                      OFFSET 2.006 0.000 0.000
                    }
                  }
                }
              }
              JOINT LeftHandRing1
              {
                OFFSET 8.689 -0.126 -2.087
                CHANNELS 6 Xposition Yposition Zposition Zrotation Xrotation Yrotation
                JOINT LeftHandRing2
                {
                  OFFSET 4.538 -0.000 -0.000
                  CHANNELS 6 Xposition Yposition Zposition Zrotation Xrotation Yrotation
                  JOINT LeftHandRing3
                  {
                    OFFSET 2.305 -0.000 -0.000
                    CHANNELS 6 Xposition Yposition Zposition Zrotation Xrotation Yrotation
                    End Site
                    {
                      OFFSET 1.923 0.000 0.000
                    }
                  }
                }
              }
              JOINT LeftHandPinky1
              {
                OFFSET 8.391 -0.817 -3.758
                CHANNELS 6 Xposition Yposition Zposition Zrotation Xrotation Yrotation
                JOINT LeftHandPinky2
                {
                  OFFSET 3.044 0.000 0.000
                  CHANNELS 6 Xposition Yposition Zposition Zrotation Xrotation Yrotation
                  JOINT LeftHandPinky3
                  {
                    OFFSET 1.975 0.000 0.000
                    CHANNELS 6 Xposition Yposition Zposition Zrotation Xrotation Yrotation
                    End Site
                    {
                      OFFSET 1.667 0.000 0.000
                    }
                  }
                }
              }
            }
          }
        }
      }
      JOINT RightShoulder
      {
        OFFSET -1.534 -0.353 0.483
        CHANNELS 6 Xposition Yposition Zposition Zrotation Xrotation Yrotation
        JOINT RightArm
        {
          OFFSET -16.666 0.000 0.000
          CHANNELS 6 Xposition Yposition Zposition Zrotation Xrotation Yrotation
          JOINT RightForeArm
          {
            OFFSET -23.531 0.000 0.000
            CHANNELS 6 Xposition Yposition Zposition Zrotation Xrotation Yrotation
            JOINT RightHand
            {
              OFFSET -21.427 0.000 0.000
              CHANNELS 6 Xposition Yposition Zposition Zrotation Xrotation Yrotation
              JOINT RightHandThumb1
              {
                OFFSET -4.877 -1.044 3.608
                CHANNELS 6 Xposition Yposition Zposition Zrotation Xrotation Yrotation
                JOINT RightHandThumb2
                {
                  OFFSET -2.665 -0.000 0.000
                  CHANNELS 6 Xposition Yposition Zposition Zrotation Xrotation Yrotation
                  JOINT RightHandThumb3
                  {
                    OFFSET -2.543 -0.000 -0.000
                    CHANNELS 6 Xposition Yposition Zposition Zrotation Xrotation Yrotation
                    End Site
                    {
                      OFFSET -2.667 0.000 -0.000
                    }
                  }
                }
              }
              JOINT RightHandIndex1
              {
                OFFSET -9.232 -0.301 2.144
                CHANNELS 6 Xposition Yposition Zposition Zrotation Xrotation Yrotation
                JOINT RightHandIndex2
                {
                  OFFSET -4.225 0.000 0.000
                  CHANNELS 6 Xposition Yposition Zposition Zrotation Xrotation Yrotation
                  JOINT RightHandIndex3
                  {
                    OFFSET -2.654 -0.000 -0.000
                    CHANNELS 6 Xposition Yposition Zposition Zrotation Xrotation Yrotation
                    End Site
                    {
                      OFFSET -1.958 0.000 0.000
                    }
                  }
                }
              }
              JOINT RightHandMiddle1
              {
                OFFSET -8.920 0.000 0.000
                CHANNELS 6 Xposition Yposition Zposition Zrotation Xrotation Yrotation
                JOINT RightHandMiddle2
                {
                  OFFSET -4.863 0.000 0.000
                  CHANNELS 6 Xposition Yposition Zposition Zrotation Xrotation Yrotation
                  JOINT RightHandMiddle3
                  {
                    OFFSET -2.765 0.000 -0.000
                    CHANNELS 6 Xposition Yposition Zposition Zrotation Xrotation Yrotation
                    End Site
                    {
                      OFFSET -2.006 0.000 0.000
                    }
                  }
                }
              }
              JOINT RightHandRing1
              {
                OFFSET -8.689 -0.126 -2.087
                CHANNELS 6 Xposition Yposition Zposition Zrotation Xrotation Yrotation
                JOINT RightHandRing2
                {
                  OFFSET -4.538 0.000 0.000
                  CHANNELS 6 Xposition Yposition Zposition Zrotation Xrotation Yrotation
                  JOINT RightHandRing3
                  {
                    OFFSET -2.305 0.000 0.000
                    CHANNELS 6 Xposition Yposition Zposition Zrotation Xrotation Yrotation
                    End Site
                    {
                      OFFSET -1.923 -0.000 0.000
                    }
                  }
                }
              }
              JOINT RightHandPinky1
              {
                OFFSET -8.391 -0.817 -3.758
                CHANNELS 6 Xposition Yposition Zposition Zrotation Xrotation Yrotation
                JOINT RightHandPinky2
                {
                  OFFSET -3.044 -0.000 0.000
                  CHANNELS 6 Xposition Yposition Zposition Zrotation Xrotation Yrotation
                  JOINT RightHandPinky3
                  {
                    OFFSET -1.975 0.000 0.000
                    CHANNELS 6 Xposition Yposition Zposition Zrotation Xrotation Yrotation
                    End Site
                    {
                      OFFSET -1.667 0.000 0.000
                    }
                  }
                }
              }
            }
          }
        }
      }
      JOINT Neck
      {
        OFFSET 0.000 0.730 0.000
        CHANNELS 6 Xposition Yposition Zposition Zrotation Xrotation Yrotation
        JOINT Head
        {
          OFFSET 0.000 6.313 0.000
          CHANNELS 6 Xposition Yposition Zposition Zrotation Xrotation Yrotation
          End Site
          {
            OFFSET 0.000 13.062 0.000
          }
        }
      }
    }
  }
}
MOTION
Frames:	4
Frame Time:	0.033333
-52.01369 88.68420 -208.11394 -3.62169 4.18390 14.83894 7.22973 0.16320 3.31305 2.58172 -10.48844 12.53146 -0.02008 -32.39716 -0.66316 -16.19444 15.52380 -2.69326 0.06376 -39.25441 -0.09168 0.22173 6.56391 2.91256 -7.65570 2.21222 3.35363 -27.44501 -59.64413 -10.47500 0.67782 -34.72738 0.57089 80.84230 60.66679 -29.87333 0.19122 -32.08525 0.01723 -0.84552 19.76239 -1.06032 -0.05409 29.41128 -0.11031 -0.25810 2.65719 4.71795 0.07237 21.25260 -0.02023 0.25148 2.73328 5.03955 1.98946 -0.29209 0.72648 -2.90397 0.91576 -18.70318 17.82183 -0.15418 0.03629 -31.37618 -19.44271 -90.04846 21.24830 -0.60703 4.78214 30.47323 -25.67076 -68.57351 22.69414 -0.24173 0.96319 11.38206 5.59609 2.35471 4.87701 -1.04401 3.60802 -24.71361 4.17381 -9.07567 2.66500 0.00000 0.00001 -0.00000 0.00000 9.98610 2.54300 0.00000 0.00001 0.00000 0.00000 15.12512 9.23201 -0.30100 2.14401 -20.16508 -0.00000 0.00000 4.22500 -0.00001 0.00000 -25.17878 0.00000 0.00000 2.65400 0.00001 -0.00001 -30.01530 2.50174 -4.31605 8.92000 0.00000 0.00002 -20.16682 -0.00000 0.00000 4.86299 0.00000 -0.00002 -25.18073 0.00000 0.00000 2.76501 -0.00001 -0.00002 -30.01679 2.50237 -4.31599 8.68901 -0.12600 -2.08699 -20.16682 -0.00000 0.00000 4.53799 -0.00001 -0.00002 -25.18073 0.00000 0.00000 2.30501 -0.00001 -0.00001 -30.01679 2.50237 -4.31599 8.39101 -0.81700 -3.75799 -20.16508 -0.00000 0.00000 3.04399 0.00000 0.00000 -25.17878 0.00000 0.00000 1.97500 0.00000 0.00002 -30.01530 2.50174 -4.31605 -1.14146 -0.21448 0.63915 9.66613 5.34774 28.17748 -12.06254 -0.15507 0.08222 -13.18191 -36.82419 40.73198 -22.88860 -1.61499 2.78205 125.51765 13.44361 135.91074 -22.24383 1.49384 -0.50990 18.85020 -11.73384 -0.95288 -4.87701 -1.04397 3.60800 40.90004 11.75845 -3.90580 -2.66500 -0.00001 0.00001 -0.00000 0.00000 -5.00001 -2.54299 -0.00002 -0.00001 -0.00001 -0.00000 -60.00000 -9.23201 -0.30097 2.14403 -1.99542 0.00000 -0.00000 -4.22500 0.00001 0.00000 -1.99486 0.00000 -0.00000 -2.65399 -0.00002 -0.00001 -1.99598 0.00000 -0.00000 -8.92001 0.00002 0.00000 80.00000 -0.00000 0.00000 -4.86301 0.00000 0.00000 90.00000 -0.00000 0.00001 -2.76501 0.00001 -0.00002 70.00000 -0.00001 0.00000 -8.68901 -0.12599 -2.08700 80.00000 -0.00000 0.00000 -4.53803 0.00000 0.00000 90.00000 -0.00000 0.00001 -2.30500 0.00001 0.00002 70.00000 -0.00001 0.00000 -8.39100 -0.81699 -3.75800 -1.99542 0.00000 -0.00000 -3.04400 -0.00001 0.00000 -1.99486 0.00000 -0.00000 -1.97499 0.00001 0.00000 -1.99598 0.00000 -0.00000 0.00002 0.70326 0.00000 0.00000 -0.00005 0.00000 0.21246 5.82902 0.14592 -17.91229 11.73147 0.79708 
-49.35425 82.83042 -207.38646 -4.12921 3.68149 13.66500 7.49816 0.63949 3.32248 1.68476 -9.32744 10.58109 0.01890 -31.28805 -0.50240 -19.04882 15.07191 -2.93186 0.08502 -39.18530 -0.28779 10.36345 11.23437 -18.60109 -7.84924 1.73821 3.36579 -18.30434 -65.26164 -4.81060 0.55593 -34.79204 0.50288 83.25952 61.44855 -38.34820 0.14960 -33.95838 0.37803 1.41222 24.37604 -4.32054 -0.05636 29.63240 -0.08419 -0.16305 2.52014 4.19908 0.07058 21.50056 -0.00812 0.22991 2.71139 4.57210 1.86239 -0.36011 0.82725 0.23073 -0.64180 -23.34055 15.87669 -0.06073 -0.55164 -43.66632 -14.01017 -81.64949 20.89148 -1.88476 3.55189 0.51405 -19.63010 -89.16306 24.07772 -0.75799 1.54515 12.04344 19.57651 14.37029 4.87701 -1.04401 3.60802 -24.69520 4.18724 -9.07598 2.66500 0.00000 0.00001 -0.00000 0.00000 9.99147 2.54300 0.00000 0.00001 0.00000 0.00000 15.07681 9.23201 -0.30100 2.14401 -20.10135 -0.00000 0.00000 4.22500 -0.00001 0.00000 -25.10975 0.00000 0.00000 2.65400 0.00001 -0.00001 -29.97282 2.50141 -4.32256 8.92000 0.00000 0.00002 -20.10242 -0.00000 0.00000 4.86299 0.00000 -0.00002 -25.11094 0.00000 0.00000 2.76501 -0.00001 -0.00002 -29.97369 2.50208 -4.32252 8.68901 -0.12600 -2.08699 -20.10242 -0.00000 0.00000 4.53799 -0.00001 -0.00002 -25.11094 0.00000 0.00000 2.30501 -0.00001 -0.00001 -29.97369 2.50208 -4.32252 8.39101 -0.81700 -3.75799 -20.10135 -0.00000 0.00000 3.04399 0.00000 0.00000 -25.10975 0.00000 0.00000 1.97500 0.00000 0.00002 -29.97282 2.50141 -4.32256 -1.12554 -0.23826 0.67975 9.89450 5.94533 30.28316 -12.13043 -0.11354 0.04623 -2.42744 -40.37796 43.06633 -22.82837 -1.94769 1.91333 109.17461 -2.00312 124.68343 -22.94006 1.43346 -0.58723 21.94203 -15.90033 5.43689 -4.87701 -1.04397 3.60800 40.90004 11.75845 -3.90580 -2.66500 -0.00001 0.00001 -0.00000 0.00000 -5.00001 -2.54299 -0.00002 -0.00001 -0.00001 -0.00000 -60.00000 -9.23201 -0.30097 2.14403 -1.99542 0.00000 -0.00000 -4.22500 0.00001 0.00000 -1.99486 0.00000 -0.00000 -2.65399 -0.00002 -0.00001 -1.99598 0.00000 -0.00000 -8.92001 0.00002 0.00000 80.00000 -0.00000 0.00000 -4.86301 0.00000 0.00000 90.00000 -0.00000 0.00001 -2.76501 0.00001 -0.00002 70.00000 -0.00001 0.00000 -8.68901 -0.12599 -2.08700 80.00000 -0.00000 0.00000 -4.53803 0.00000 0.00000 90.00000 -0.00000 0.00001 -2.30500 0.00001 0.00002 70.00000 -0.00001 0.00000 -8.39100 -0.81699 -3.75800 -1.99542 0.00000 -0.00000 -3.04400 -0.00001 0.00000 -1.99486 0.00000 -0.00000 -1.97499 0.00001 0.00000 -1.99598 0.00000 -0.00000 0.00002 0.70242 0.00000 0.00000 -0.00005 0.00000 0.16586 6.04202 0.09953 -16.48911 2.98516 -0.55274 
-46.02853 80.38932 -206.48491 -3.45835 2.74234 11.70148 7.55439 0.81367 3.33166 0.80210 -6.81336 10.68930 -0.04888 -30.45153 -0.30796 -21.61256 14.39732 -3.68882 0.05458 -39.26176 -0.34322 6.47546 9.18722 -9.14694 -7.75027 1.40032 3.41055 -8.05332 -66.52950 3.80255 0.61916 -35.49472 0.45656 79.72715 61.87339 -40.40025 0.08499 -32.37109 0.19487 1.79650 16.85287 -10.77815 -0.06662 29.55398 -0.08421 -0.11440 2.46063 4.16856 0.04433 21.46845 -0.02338 0.24401 2.83489 4.47987 1.70097 -0.42033 0.84608 -3.25444 1.98786 -27.51679 14.65867 0.11776 -0.65580 -46.66980 -11.42548 -73.93221 21.00055 -2.13679 2.44603 -6.18645 -10.59916 -85.60930 22.70551 -2.39766 1.01207 24.53047 18.45951 -0.63529 4.87701 -1.04401 3.60802 -24.68394 4.19543 -9.07623 2.66500 0.00000 0.00001 -0.00000 0.00000 9.99474 2.54300 0.00000 0.00001 0.00000 0.00000 15.04728 9.23201 -0.30100 2.14401 -20.06239 -0.00000 0.00000 4.22500 -0.00001 0.00000 -25.06756 0.00000 0.00000 2.65400 0.00001 -0.00001 -29.94686 2.50111 -4.32652 8.92000 0.00000 0.00002 -20.06305 -0.00000 0.00000 4.86299 0.00000 -0.00002 -25.06829 0.00000 0.00000 2.76501 -0.00001 -0.00002 -29.94737 2.50181 -4.32650 8.68901 -0.12600 -2.08699 -20.06305 -0.00000 0.00000 4.53799 -0.00001 -0.00002 -25.06829 0.00000 0.00000 2.30501 -0.00001 -0.00001 -29.94737 2.50181 -4.32650 8.39101 -0.81700 -3.75799 -20.06239 -0.00000 0.00000 3.04399 0.00000 0.00000 -25.06756 0.00000 0.00000 1.97500 0.00000 0.00002 -29.94686 2.50111 -4.32652 -1.20476 -0.39690 0.75060 11.57891 6.49273 29.17452 -13.55804 -0.33508 -0.04264 8.64482 -35.01568 50.10819 -22.89605 -1.71235 1.42509 75.15572 -18.34644 109.61903 -22.32874 1.62738 -0.17917 34.57203 -22.29903 16.60773 -4.87701 -1.04397 3.60800 40.90004 11.75845 -3.90580 -2.66500 -0.00001 0.00001 -0.00000 0.00000 -5.00001 -2.54299 -0.00002 -0.00001 -0.00001 -0.00000 -60.00000 -9.23201 -0.30097 2.14403 -1.99542 0.00000 -0.00000 -4.22500 0.00001 0.00000 -1.99486 0.00000 -0.00000 -2.65399 -0.00002 -0.00001 -1.99598 0.00000 -0.00000 -8.92001 0.00002 0.00000 80.00000 -0.00000 0.00000 -4.86301 0.00000 0.00000 90.00000 -0.00000 0.00001 -2.76501 0.00001 -0.00002 70.00000 -0.00001 0.00000 -8.68901 -0.12599 -2.08700 80.00000 -0.00000 0.00000 -4.53803 0.00000 0.00000 90.00000 -0.00000 0.00001 -2.30500 0.00001 0.00002 70.00000 -0.00001 0.00000 -8.39100 -0.81699 -3.75800 -1.99542 0.00000 -0.00000 -3.04400 -0.00001 0.00000 -1.99486 0.00000 -0.00000 -1.97499 0.00001 0.00000 -1.99598 0.00000 -0.00000 0.00002 0.70129 0.00000 0.00000 -0.00005 0.00000 0.13013 6.08116 0.06485 -14.88165 -1.83274 0.78277 
-42.77925 79.86729 -205.55251 -1.48596 2.10673 6.11153 7.68968 0.60816 3.35819 -2.98882 -18.58333 11.66188 -0.65520 -29.16540 0.31101 -19.66130 32.36302 2.53547 0.37685 -38.98223 -0.48644 4.27417 1.31427 -5.56214 -7.18230 1.38872 3.46960 7.90810 -64.95512 20.52541 0.84725 -36.78439 0.38339 72.94156 65.60437 -36.55854 0.15662 -31.31343 0.13848 -3.04632 23.96300 2.20811 0.05363 28.65948 -0.12412 -1.08472 2.46892 3.41639 0.08235 21.15296 -0.05724 -0.29522 3.07428 3.38497 1.68620 -0.47867 0.79358 -6.42270 3.91666 -26.29800 14.76779 0.00898 -0.37512 -46.24482 -8.68907 -65.10217 21.07085 -1.77944 1.41070 -14.70781 -3.81790 -84.34865 21.70066 -2.72081 1.14519 34.04947 20.23971 3.88679 4.87701 -1.04401 3.60802 -24.67696 4.20052 -9.07644 2.66500 0.00000 0.00001 -0.00000 0.00000 9.99499 2.54300 0.00000 0.00001 0.00000 0.00000 15.02900 9.23201 -0.30100 2.14401 -20.03827 -0.00000 0.00000 4.22500 -0.00001 0.00000 -25.04144 0.00000 0.00000 2.65400 0.00001 -0.00001 -29.93079 2.50082 -4.32898 8.92000 0.00000 0.00002 -20.03867 -0.00000 0.00000 4.86299 0.00000 -0.00002 -25.04189 0.00000 0.00000 2.76501 -0.00001 -0.00002 -29.93107 2.50157 -4.32897 8.68901 -0.12600 -2.08699 -20.03867 -0.00000 0.00000 4.53799 -0.00001 -0.00002 -25.04189 0.00000 0.00000 2.30501 -0.00001 -0.00001 -29.93107 2.50157 -4.32897 8.39101 -0.81700 -3.75799 -20.03827 -0.00000 0.00000 3.04399 0.00000 0.00000 -25.04144 0.00000 0.00000 1.97500 0.00000 0.00002 -29.93079 2.50082 -4.32898 -1.08452 -0.21964 0.74267 4.65763 3.77885 31.62910 -12.25942 -0.54232 0.14536 25.97239 -25.80873 48.68792 -23.12998 -2.25152 0.09031 56.62910 -17.94177 96.34180 -20.65402 2.34681 0.14495 30.17642 -15.35526 20.77968 -4.87701 -1.04397 3.60800 40.90004 11.75845 -3.90580 -2.66500 -0.00001 0.00001 -0.00000 0.00000 -5.00001 -2.54299 -0.00002 -0.00001 -0.00001 -0.00000 -60.00000 -9.23201 -0.30097 2.14403 -1.99542 0.00000 -0.00000 -4.22500 0.00001 0.00000 -1.99486 0.00000 -0.00000 -2.65399 -0.00002 -0.00001 -1.99598 0.00000 -0.00000 -8.92001 0.00002 0.00000 80.00000 -0.00000 0.00000 -4.86301 0.00000 0.00000 90.00000 -0.00000 0.00001 -2.76501 0.00001 -0.00002 70.00000 -0.00001 0.00000 -8.68901 -0.12599 -2.08700 80.00000 -0.00000 0.00000 -4.53803 0.00000 0.00000 90.00000 -0.00000 0.00001 -2.30500 0.00001 0.00002 70.00000 -0.00001 0.00000 -8.39100 -0.81699 -3.75800 -1.99542 0.00000 -0.00000 -3.04400 -0.00001 0.00000 -1.99486 0.00000 -0.00000 -1.97499 0.00001 0.00000 -1.99598 0.00000 -0.00000 0.00002 0.70012 0.00000 0.00000 -0.00005 0.00000 0.09284 6.10407 0.01443 -13.65532 -5.38382 9.19740 
